<?xml version="1.0" encoding="UTF-8"?>
<!DOCTYPE svg PUBLIC "-//W3C//DTD SVG 1.1//EN" "http://www.w3.org/Graphics/SVG/1.1/DTD/svg11.dtd">
<!-- Creator: CorelDRAW -->
<svg xmlns="http://www.w3.org/2000/svg" xml:space="preserve" width="1.70666in" height="1.70666in" version="1.1" style="shape-rendering:geometricPrecision; text-rendering:geometricPrecision; image-rendering:optimizeQuality; fill-rule:evenodd; clip-rule:evenodd"
viewBox="0 0 1707 1707"
 xmlns:xlink="http://www.w3.org/1999/xlink">
 <defs>
  <style type="text/css">
   <![CDATA[
    .fil0 {fill:black}
   ]]>
  </style>
 </defs>
 <g id="Layer_x0020_1">
  <metadata id="CorelCorpID_0Corel-Layer"/>
  <g id="_413023408">
   <g>
    <path class="fil0" d="M1573 1475l-116 0c-14,0 -25,-11 -25,-25 0,-13 11,-25 25,-25l116 0c47,0 85,-38 85,-86l0 -887c0,-47 -38,-85 -85,-85l-1438 0c-47,0 -86,38 -86,85l0 889c0,47 39,86 86,86l1021 0c14,0 25,11 25,25 0,14 -11,25 -25,25l-1021 0c-74,0 -135,-60 -135,-135l0 -890c0,-74 60,-133 135,-133l1438 0c74,0 133,59 133,133l0 889c0,73 -59,134 -133,134z"/>
   </g>
   <g>
    <path class="fil0" d="M1681 1233l-618 0c-14,0 -25,-11 -25,-25l0 -866c0,-14 11,-25 25,-25 14,0 25,11 25,25l0 842 593 0c14,0 25,11 25,25 0,14 -11,24 -25,24z"/>
   </g>
   <g>
    <path class="fil0" d="M322 1244c-76,0 -139,-63 -139,-139l0 -474c0,-77 63,-139 139,-139 76,0 139,62 139,139l0 475c0,77 -63,138 -139,138zm0 -702c-50,0 -90,40 -90,90l0 476c0,50 40,90 90,90 50,0 90,-40 90,-90l0 -477c0,-50 -40,-89 -90,-89z"/>
   </g>
   <g>
    <path class="fil0" d="M317 1636c-52,0 -95,-36 -95,-80l0 -106c0,-13 11,-25 25,-25 14,0 25,12 25,25l0 106c0,16 21,32 46,32 24,0 44,-14 44,-32l0 -106c0,-13 11,-25 25,-25 14,0 25,12 25,25l0 106c-1,44 -44,80 -95,80z"/>
   </g>
   <g>
    <path class="fil0" d="M1307 1625c-97,0 -175,-78 -175,-173 0,-96 79,-174 175,-174 96,0 173,78 173,174 0,95 -77,173 -173,173zm0 -299c-70,0 -126,56 -126,124 0,68 56,125 126,125 69,0 125,-57 125,-125 0,-68 -56,-124 -125,-124z"/>
   </g>
   <g>
    <path class="fil0" d="M1489 367c-14,0 -25,-11 -25,-25l0 -83c0,-32 -27,-58 -59,-58l-1061 0c-32,0 -58,26 -58,58l0 83c0,14 -11,25 -25,25 -14,0 -25,-11 -25,-25l0 -83c0,-60 49,-107 107,-107l1061 0c60,0 107,49 107,107l0 83c1,14 -9,25 -22,25z"/>
   </g>
   <g>
    <path class="fil0" d="M1247 201c-14,0 -25,-11 -25,-25 0,-6 2,-11 6,-15l0 -25c0,-10 -7,-17 -11,-17l-114 0c-4,0 -10,7 -10,17l0 27c3,5 4,9 4,14 0,14 -11,25 -25,25 -15,0 -27,-12 -27,-29l0 -37c0,-36 26,-66 58,-66l114 0c32,0 59,31 59,66l0 36c0,16 -12,29 -29,29zm-173 -49c0,0 0,0 0,0 0,0 0,0 0,0z"/>
   </g>
   <g>
    <path class="fil0" d="M727 1240c-66,0 -121,-55 -121,-121 0,-67 55,-121 121,-121 67,0 121,54 121,121 0,66 -54,121 -121,121zm0 -193c-40,0 -72,32 -72,72 0,40 32,72 72,72 40,0 72,-32 72,-72 0,-39 -33,-72 -72,-72z"/>
   </g>
   <g>
    <path class="fil0" d="M727 939c-66,0 -121,-54 -121,-121 0,-67 55,-121 121,-121 67,0 121,54 121,121 0,67 -54,121 -121,121zm0 -195c-39,0 -72,34 -72,73 0,38 33,72 72,72 39,0 72,-34 72,-72 0,-39 -33,-73 -72,-73z"/>
   </g>
   <g>
    <path class="fil0" d="M873 1364l-683 0c-13,0 -25,-11 -25,-25 0,-13 12,-25 25,-25l683 0c14,0 25,12 25,25 0,14 -13,25 -25,25z"/>
   </g>
   <g>
    <path class="fil0" d="M773 470l-193 0c-14,0 -25,-11 -25,-25 0,-14 11,-25 25,-25l193 0c14,0 25,11 25,25 0,14 -11,25 -25,25z"/>
   </g>
   <g>
    <path class="fil0" d="M773 572l-193 0c-14,0 -25,-11 -25,-24 0,-14 11,-25 25,-25l193 0c14,0 25,11 25,25 0,13 -11,24 -25,24z"/>
   </g>
   <g>
    <path class="fil0" d="M823 842l-97 0c-14,0 -25,-12 -25,-25 0,-14 11,-25 25,-25l97 0c14,0 25,11 25,25 0,13 -11,25 -25,25z"/>
   </g>
   <g>
    <path class="fil0" d="M1213 1137c-5,0 -9,-1 -13,-4 -10,-6 -14,-20 -10,-31l114 -277 -93 0c-8,0 -17,-4 -21,-13 -4,-7 -4,-16 0,-23l181 -330c4,-9 12,-13 20,-13l159 0c8,0 16,4 20,13 4,7 4,16 0,25l-108 188 97 0c10,0 18,6 22,14 5,9 3,18 -2,27l-347 414c-6,6 -13,10 -19,10zm38 -359l88 0c8,0 15,4 21,11 5,7 5,15 2,22l-68 165 213 -255 -88 0c-8,0 -16,-4 -21,-13 -4,-7 -4,-16 0,-25l109 -188 -102 0 -154 283z"/>
   </g>
  </g>
 </g>
</svg>
